# xmcd
#
# Track frame offsets:
#	150
#	14099
#	33787
#	45526
#	59023
#	74359
#	90835
#	103660
#	117385
#	128261
#	148584
#	167484
#	179785
#	193498
#	214640
#	230998
#	247065
#	262005
#	280293
#	292535
#	305453
#	316873
#	329185
#	342370
#
# Disc length: 4749 seconds
#
# Revision: 2
# Processed by: cddbd v1.4b41PL3 Copyright (c) Steve Scherf et al.
# Submitted via: EZCDDA 4.3.2
#
DISCID=74128b18
DTITLE=Aretha Franklin - Soul'69&Spirit In The Dark
DYEAR=1900
DGENRE=
TTITLE0=Ramblin'
TTITLE1=Todeay I Sign The Blues
TTITLE2=River's Invitation
TTITLE3=Pitiful
TTITLE4=Crazy He Calls Me
TTITLE5=Bring It On Home To Me
TTITLE6=Tracks Of My Tears
TTITLE7=If You Gotta Make A Fool Of Somebody
TTITLE8=Gentle On My Mind
TTITLE9=So Long
TTITLE10=I'll Never Be Free
TTITLE11=Elusive Butterfly
TTITLE12=Don't Play That Song
TTITLE13=The Thlill Is Gone (From Yesterday's Kiss)
TTITLE14=Pullin'
TTITLE15=You And Me
TTITLE16=Honest I Do
TTITLE17=Spirit In The Dark
TTITLE18=When The Battle Is Over
TTITLE19=One Way Ticket
TTITLE20=Try Matty's
TTITLE21=That's All I Want From You
TTITLE22=Oh No Not My Baby
TTITLE23=Why I Sing The Blues
EXTD=
EXTT0=
EXTT1=
EXTT2=
EXTT3=
EXTT4=
EXTT5=
EXTT6=
EXTT7=
EXTT8=
EXTT9=
EXTT10=
EXTT11=
EXTT12=
EXTT13=
EXTT14=
EXTT15=
EXTT16=
EXTT17=
EXTT18=
EXTT19=
EXTT20=
EXTT21=
EXTT22=
EXTT23=
PLAYORDER=
